<svg width="121" height="120" viewBox="0 0 121 120" fill="none" xmlns="http://www.w3.org/2000/svg">
<path d="M66.5096 90.1914C66.452 98.0922 60.0296 104.476 52.1192 104.476C49.9688 104.476 47.9432 103.996 46.1096 103.151C46.1096 103.19 46.1096 103.228 46.1096 103.267C46.1096 111.215 52.5608 117.667 60.5096 117.667C68.4584 117.667 74.9096 111.215 74.9096 103.267C74.9096 97.4586 71.4632 92.4762 66.5192 90.1914H66.5096Z" fill="#F36F21"/>
<path d="M49.3352 64.4154H47.684L47.9912 76.2906L48.02 77.6058H72.98L74.9 2.3418H66.1832L64.9064 52.3194C64.7336 59.049 59.2328 64.4154 52.4936 64.4154H49.3352Z" fill="#F36F21"/>
<path fill-rule="evenodd" clip-rule="evenodd" d="M45.0688 1.32745C45.3399 1.04939 45.7117 0.892578 46.1 0.892578H74.9C75.2883 0.892578 75.6601 1.04938 75.9311 1.32741C76.2022 1.60545 76.3494 1.98115 76.3395 2.3693L74.4195 77.6333C74.3996 78.414 73.761 79.0366 72.98 79.0366H48.02C47.2389 79.0366 46.6002 78.4138 46.5805 77.6329L46.2157 63.1657C46.1956 62.3706 46.8239 61.7099 47.6189 61.6898C48.4139 61.6698 49.0747 62.298 49.0947 63.0931L49.4242 76.1566H71.5763L73.4228 3.77258H47.5773L48.9123 55.9405C48.9327 56.7356 48.3047 57.3966 47.5096 57.4169C46.7146 57.4373 46.0536 56.8092 46.0333 56.0142L44.6605 2.36942C44.6505 1.98124 44.7978 1.60551 45.0688 1.32745Z" fill="black"/>
<path fill-rule="evenodd" clip-rule="evenodd" d="M60.5 90.3077C53.3424 90.3077 47.54 96.1101 47.54 103.268C47.54 110.425 53.3424 116.228 60.5 116.228C67.6576 116.228 73.46 110.425 73.46 103.268C73.46 96.1101 67.6576 90.3077 60.5 90.3077ZM44.66 103.268C44.66 94.5195 51.7518 87.4277 60.5 87.4277C69.2482 87.4277 76.34 94.5195 76.34 103.268C76.34 112.016 69.2482 119.108 60.5 119.108C51.7518 119.108 44.66 112.016 44.66 103.268Z" fill="black"/>
</svg>
