<svg width="44" height="44" viewBox="0 0 44 44" fill="none" xmlns="http://www.w3.org/2000/svg">
<circle cx="22" cy="22" r="22" fill="#FFCE00"/>
<rect x="13" y="13" width="18" height="18" rx="2" fill="#FFDBB3" stroke="black" stroke-width="2"/>
<g clip-path="url(#clip0_5003_47101)">
<path d="M25.1147 18.3254L20.0935 23.095L17.9964 21.1032C17.5402 20.6694 16.7987 20.6694 16.3426 21.1032C15.8858 21.5371 15.8858 22.2405 16.3426 22.6744L19.2666 25.4522C19.4947 25.6694 19.7941 25.7778 20.0935 25.7778C20.393 25.7778 20.6924 25.6694 20.9205 25.4522L26.7686 19.8966C27.2253 19.4627 27.2253 18.7593 26.7686 18.3254C26.3124 17.8915 25.5709 17.8915 25.1147 18.3254Z" fill="black"/>
<g clip-path="url(#clip1_5003_47101)">
<path d="M25.1147 18.3254L20.0935 23.095L17.9964 21.1032C17.5402 20.6694 16.7987 20.6694 16.3426 21.1032C15.8858 21.5371 15.8858 22.2405 16.3426 22.6744L19.2666 25.4522C19.4947 25.6694 19.7941 25.7778 20.0935 25.7778C20.393 25.7778 20.6924 25.6694 20.9205 25.4522L26.7686 19.8966C27.2253 19.4627 27.2253 18.7593 26.7686 18.3254C26.3124 17.8915 25.5709 17.8915 25.1147 18.3254Z" fill="black"/>
</g>
</g>
<defs>
<clipPath id="clip0_5003_47101">
<rect width="11.1111" height="7.77778" fill="white" transform="translate(16 18)"/>
</clipPath>
<clipPath id="clip1_5003_47101">
<rect width="11.1111" height="7.77778" fill="white" transform="translate(16 18)"/>
</clipPath>
</defs>
</svg>
