<svg width="375" height="124" viewBox="0 0 375 124" fill="none" xmlns="http://www.w3.org/2000/svg">
<g clip-path="url(#clip0_10334_11567)">
<mask id="mask0_10334_11567" style="mask-type:luminance" maskUnits="userSpaceOnUse" x="0" y="-4" width="375" height="128">
<path d="M0 -3.48624L375 -3.83528V124H0V-3.48624Z" fill="white"/>
</mask>
<g mask="url(#mask0_10334_11567)">
<path d="M169.393 25.6038C188.494 32.0439 206.951 34.2894 313.397 44.3521C345.525 47.106 375.233 45.8985 375.233 45.8985V5.26663C243.768 38.1662 179.744 15.6682 95.4864 6.1352C107.342 8.80445 155.389 20.8584 169.393 25.6038Z" fill="#FFA440"/>
<path d="M375.233 124.119V32.6797C375.233 32.6797 347.921 39.5223 301.593 38.0818C250.812 37.0226 232.804 36.1964 175.187 21.579C-9.87167 -28.374 -0.0474243 32.4043 -0.0474243 32.4043L-0.0669556 124.119H375.233Z" fill="#F36F21"/>
<path d="M-0.568817 38.9287C-0.568817 39.6278 -0.978973 39.9456 -0.568817 39.3948C6.09134 30.3914 41.4038 -6.57563 100.72 7.27904C67.6343 -1.08884 27.3218 -5.5164 -0.568817 14.1005V38.9287Z" fill="#FFA440"/>
<path d="M415.369 26.9387C333.474 -4.22373 268.631 67.8884 157.459 27.7013C37.2438 -21.1078 23.1422 4.05942 -17.2288 39.946" stroke="#FFFFBD" stroke-width="1.5" stroke-miterlimit="10"/>
</g>
</g>
<defs>
<clipPath id="clip0_10334_11567">
<rect width="375" height="124" fill="white" transform="matrix(-1 0 0 -1 375 124)"/>
</clipPath>
</defs>
</svg>
