<svg width="121" height="120" viewBox="0 0 121 120" fill="none" xmlns="http://www.w3.org/2000/svg">
<path d="M46.3592 117.601H88.3784C92.4872 117.601 95.8088 114.279 95.8088 110.171V65.7129L46.3592 117.601Z" fill="#F36F21"/>
<path fill-rule="evenodd" clip-rule="evenodd" d="M53.4824 9.83063C53.4824 9.03534 54.1271 8.39062 54.9224 8.39062H66.0776C66.8729 8.39062 67.5176 9.03534 67.5176 9.83063C67.5176 10.6259 66.8729 11.2706 66.0776 11.2706H54.9224C54.1271 11.2706 53.4824 10.6259 53.4824 9.83063Z" fill="black"/>
<path fill-rule="evenodd" clip-rule="evenodd" d="M32.6312 3.84094C29.3228 3.84094 26.6408 6.52293 26.6408 9.83134V110.171C26.6408 113.479 29.3228 116.161 32.6312 116.161H88.3784C91.6868 116.161 94.3688 113.479 94.3688 110.171V9.83134C94.3688 6.52293 91.6868 3.84094 88.3784 3.84094H32.6312ZM23.7608 9.83134C23.7608 4.93235 27.7322 0.960938 32.6312 0.960938H88.3784C93.2774 0.960938 97.2488 4.93235 97.2488 9.83134V110.171C97.2488 115.07 93.2774 119.041 88.3784 119.041H32.6312C27.7322 119.041 23.7608 115.07 23.7608 110.171V9.83134Z" fill="black"/>
<path fill-rule="evenodd" clip-rule="evenodd" d="M56.5345 40.9418C57.0923 41.5088 57.0848 42.4205 56.5179 42.9782L39.9387 59.2886C39.3717 59.8464 38.46 59.8389 37.9023 59.272C37.3445 58.7051 37.352 57.7933 37.9189 57.2356L54.4981 40.9252C55.0651 40.3675 55.9768 40.3749 56.5345 40.9418Z" fill="black"/>
<path fill-rule="evenodd" clip-rule="evenodd" d="M79.9874 37.2563C80.5451 37.8233 80.5376 38.735 79.9707 39.2927L44.0283 74.6495C43.4613 75.2073 42.5496 75.1998 41.9919 74.6328C41.4342 74.0659 41.4416 73.1541 42.0086 72.5964L77.951 37.2396C78.518 36.6819 79.4297 36.6894 79.9874 37.2563Z" fill="black"/>
<path fill-rule="evenodd" clip-rule="evenodd" d="M82.9634 53.5376C83.5211 54.1045 83.5136 55.0163 82.9466 55.574L59.3882 78.7484C58.8213 79.3061 57.9096 79.2986 57.3518 78.7317C56.7941 78.1647 56.8016 77.253 57.3686 76.6953L80.927 53.5209C81.4939 52.9631 82.4057 52.9706 82.9634 53.5376Z" fill="black"/>
<path fill-rule="evenodd" clip-rule="evenodd" d="M25.172 20.8599C25.172 20.0646 25.8167 19.4199 26.612 19.4199H87.5432C88.3385 19.4199 88.9832 20.0646 88.9832 20.8599C88.9832 21.6552 88.3385 22.2999 87.5432 22.2999H26.612C25.8167 22.2999 25.172 21.6552 25.172 20.8599Z" fill="black"/>
<path fill-rule="evenodd" clip-rule="evenodd" d="M25.172 103.805C25.172 103.01 25.8167 102.365 26.612 102.365H87.5432C88.3385 102.365 88.9832 103.01 88.9832 103.805C88.9832 104.601 88.3385 105.245 87.5432 105.245H26.612C25.8167 105.245 25.172 104.601 25.172 103.805Z" fill="black"/>
</svg>
