<svg width="24" height="25" viewBox="0 0 24 25" fill="none" xmlns="http://www.w3.org/2000/svg">
<g clip-path="url(#clip0_11393_11771)">
<path d="M7.88437 18.5422C7.18125 18.2891 6.39844 18.3969 5.79375 18.8422C5.40937 19.1234 4.74844 19.5359 3.94687 19.9062C4.20937 19.2172 4.41094 18.4391 4.47656 17.5906C4.52344 16.9859 4.32187 16.3859 3.92344 15.9266C2.83125 14.6938 2.25 13.25 2.25 11.75C2.25 8.02344 6.15469 4.25 12 4.25C17.8453 4.25 21.75 8.02344 21.75 11.75C21.75 15.4766 17.8453 19.25 12 19.25C10.5188 19.25 9.12656 18.9922 7.88437 18.5422ZM1.23281 20.3656C1.15781 20.4922 1.07812 20.6187 0.99375 20.7453L0.979687 20.7687C0.904687 20.8766 0.829688 20.9844 0.754688 21.0922C0.590625 21.3125 0.4125 21.5281 0.225 21.725C0.00937501 21.9406 -0.0515625 22.2594 0.065625 22.5406C0.182812 22.8219 0.454688 23.0047 0.759375 23.0047C0.998438 23.0047 1.2375 22.9906 1.47656 22.9672L1.50938 22.9625C1.71563 22.9391 1.92188 22.9109 2.12813 22.8734C2.16563 22.8687 2.20312 22.8594 2.24062 22.85C3.075 22.6859 3.87656 22.4047 4.58906 22.0953C5.6625 21.6266 6.57656 21.0688 7.13437 20.6609C8.625 21.2 10.275 21.5 12.0141 21.5C18.6422 21.5 24.0141 17.1359 24.0141 11.75C24.0141 6.36406 18.6281 2 12 2C5.37188 2 0 6.36406 0 11.75C0 13.8641 0.829688 15.8187 2.23594 17.4172C2.14688 18.5656 1.70156 19.5875 1.23281 20.3656ZM6.75 13.25C7.14782 13.25 7.52936 13.092 7.81066 12.8107C8.09196 12.5294 8.25 12.1478 8.25 11.75C8.25 11.3522 8.09196 10.9706 7.81066 10.6893C7.52936 10.408 7.14782 10.25 6.75 10.25C6.35218 10.25 5.97064 10.408 5.68934 10.6893C5.40804 10.9706 5.25 11.3522 5.25 11.75C5.25 12.1478 5.40804 12.5294 5.68934 12.8107C5.97064 13.092 6.35218 13.25 6.75 13.25ZM13.5 11.75C13.5 11.3522 13.342 10.9706 13.0607 10.6893C12.7794 10.408 12.3978 10.25 12 10.25C11.6022 10.25 11.2206 10.408 10.9393 10.6893C10.658 10.9706 10.5 11.3522 10.5 11.75C10.5 12.1478 10.658 12.5294 10.9393 12.8107C11.2206 13.092 11.6022 13.25 12 13.25C12.3978 13.25 12.7794 13.092 13.0607 12.8107C13.342 12.5294 13.5 12.1478 13.5 11.75ZM17.25 13.25C17.6478 13.25 18.0294 13.092 18.3107 12.8107C18.592 12.5294 18.75 12.1478 18.75 11.75C18.75 11.3522 18.592 10.9706 18.3107 10.6893C18.0294 10.408 17.6478 10.25 17.25 10.25C16.8522 10.25 16.4706 10.408 16.1893 10.6893C15.908 10.9706 15.75 11.3522 15.75 11.75C15.75 12.1478 15.908 12.5294 16.1893 12.8107C16.4706 13.092 16.8522 13.25 17.25 13.25Z" fill="black"/>
</g>
<defs>
<clipPath id="clip0_11393_11771">
<rect width="24" height="24" fill="white" transform="translate(0 0.5)"/>
</clipPath>
</defs>
</svg>
