<svg width="60" height="61" viewBox="0 0 60 61" fill="none" xmlns="http://www.w3.org/2000/svg">
<path fill-rule="evenodd" clip-rule="evenodd" d="M3.04688 16.9648V10.2266C3.04688 6.54336 6.04342 3.54688 9.72656 3.54688H16.4648C17.3062 3.54688 17.9883 2.86479 17.9883 2.02344C17.9883 1.18209 17.3062 0.5 16.4648 0.5H9.72656C4.36336 0.5 0 4.8633 0 10.2266V16.9648C0 17.8062 0.68209 18.4883 1.52344 18.4883C2.36479 18.4883 3.04688 17.8062 3.04688 16.9648ZM16.4648 57.4531C17.3062 57.4531 17.9883 58.1352 17.9883 58.9766C17.9883 59.8179 17.3062 60.5 16.4648 60.5H9.72656C4.36336 60.5 0 56.1366 0 50.7734V44.0352C0 43.1938 0.68209 42.5117 1.52344 42.5117C2.36479 42.5117 3.04688 43.1938 3.04688 44.0352V50.7734C3.04688 54.4566 6.04342 57.4531 9.72656 57.4531H16.4648ZM60 44.0352V50.7734C60 56.1366 55.6366 60.5 50.2734 60.5H43.5352C42.6938 60.5 42.0117 59.8179 42.0117 58.9766C42.0117 58.1352 42.6938 57.4531 43.5352 57.4531H50.2734C53.9566 57.4531 56.9531 54.4566 56.9531 50.7734V44.0352C56.9531 43.1938 57.6352 42.5117 58.4766 42.5117C59.3179 42.5117 60 43.1938 60 44.0352ZM60 10.2266V16.9648C60 17.8062 59.3179 18.4883 58.4766 18.4883C57.6352 18.4883 56.9531 17.8062 56.9531 16.9648V10.2266C56.9531 6.54336 53.9566 3.54688 50.2734 3.54688H43.5352C42.6938 3.54688 42.0117 2.86479 42.0117 2.02344C42.0117 1.18209 42.6938 0.5 43.5352 0.5H50.2734C55.6366 0.5 60 4.8633 60 10.2266ZM40.5133 44.8457C41.1551 44.2529 41.1948 43.252 40.6019 42.6102C40.009 41.9683 39.0082 41.9286 38.3663 42.5214C36.0825 44.6311 33.1113 45.7929 29.9999 45.7929C26.8885 45.7929 23.9172 44.6311 21.6334 42.5214C20.9914 41.9286 19.9907 41.9684 19.3978 42.6102C18.8049 43.252 18.8446 44.2529 19.4864 44.8457C22.3567 47.4969 26.0903 48.9569 29.9999 48.9569C33.9094 48.9569 37.6431 47.4969 40.5133 44.8457ZM33.1641 23.1172V34.3672C33.1641 36.5965 31.3504 38.4102 29.1211 38.4102H27.832C26.9583 38.4102 26.25 37.7019 26.25 36.8281C26.25 35.9544 26.9583 35.2461 27.832 35.2461H29.1211C29.6057 35.2461 30 34.8518 30 34.3672V23.1172C30 22.2434 30.7083 21.5352 31.582 21.5352C32.4558 21.5352 33.1641 22.2434 33.1641 23.1172ZM44.0625 27.541V23.0293C44.0625 22.2041 43.3935 21.5352 42.5684 21.5352C41.7432 21.5352 41.0742 22.2041 41.0742 23.0293V27.541C41.0742 28.3662 41.7432 29.0352 42.5684 29.0352C43.3935 29.0352 44.0625 28.3662 44.0625 27.541ZM16.2891 27.541C16.2891 28.3662 16.958 29.0352 17.7832 29.0352C18.6084 29.0352 19.2773 28.3662 19.2773 27.541V23.0293C19.2773 22.2041 18.6084 21.5352 17.7832 21.5352C16.958 21.5352 16.2891 22.2041 16.2891 23.0293V27.541Z" fill="#CD2500"/>
</svg>
