<svg width="121" height="59" viewBox="0 0 121 59" fill="none" xmlns="http://www.w3.org/2000/svg">
<g clip-path="url(#clip0_9614_17257)">
<path d="M38.7827 35.6319C38.2413 34.5215 37.4539 33.6825 36.4203 33.0656C35.4114 32.4487 34.2055 32.1526 32.8275 32.1526C31.2525 32.1526 29.8744 32.5227 28.7178 33.2383C27.9304 33.7318 27.2659 34.4228 26.7246 35.2617C26.6507 35.3851 26.4293 35.3358 26.4293 35.1877V32.5227C26.4293 32.4487 26.3554 32.3747 26.2816 32.3747H21.2861C21.2123 32.3747 21.1384 32.4487 21.1384 32.5227V51.4738C21.1384 51.5478 21.2123 51.6218 21.2861 51.6218H26.2816C26.3554 51.6218 26.4293 51.5478 26.4293 51.4738V42.1216C26.4293 40.6658 26.7984 39.4566 27.5612 38.4943C28.3241 37.5319 29.3577 37.0384 30.6619 37.0137C31.7939 37.0137 32.6798 37.3839 33.3196 38.0995C33.9841 38.8151 34.304 39.8021 34.304 41.0853V51.4738C34.304 51.5478 34.3778 51.6218 34.4516 51.6218H39.4472C39.521 51.6218 39.5948 51.5478 39.5948 51.4738V39.5307C39.5948 38.0254 39.3241 36.7176 38.7827 35.6319Z" fill="#F36F21"/>
<path d="M59.7249 37.5319C59.085 35.8293 58.0761 34.4968 56.698 33.5591C55.3199 32.6214 53.5235 32.1526 51.358 32.1526C49.4877 32.1773 47.8143 32.5968 46.387 33.4111C44.9598 34.2254 43.8278 35.3605 43.0403 36.841C42.2282 38.3216 41.8345 40.0489 41.8345 42.0229C41.8345 43.9723 42.2282 45.675 43.0157 47.1308C43.8032 48.6114 44.9351 49.7465 46.3624 50.5608C47.8143 51.3751 49.5123 51.7699 51.481 51.7699C53.1544 51.7699 54.6555 51.4738 56.009 50.9062C57.3132 50.3634 58.396 49.5738 59.3065 48.5374C59.3557 48.488 59.3557 48.3893 59.3065 48.3153L56.7226 45.6503C56.6734 45.5763 56.575 45.6009 56.5011 45.6503C55.1969 46.9581 53.6712 47.6244 51.924 47.6244C50.9396 47.6244 50.0537 47.3776 49.3155 46.9088C48.5526 46.4399 47.962 45.749 47.5683 44.8607C47.4206 44.5399 47.2976 44.1697 47.1991 43.7996C47.1745 43.7009 47.2483 43.6022 47.3468 43.6022H60.2909C60.3647 43.6022 60.4385 43.5282 60.4385 43.4541C60.5615 41.184 60.3401 39.2099 59.7249 37.5319ZM47.2237 40.3943C47.1253 40.3943 47.0515 40.2956 47.0761 40.2216C47.1745 39.7034 47.2976 39.2346 47.4944 38.7904C47.8636 37.9514 48.3803 37.2852 49.0448 36.8163C49.7092 36.3475 50.4967 36.1007 51.3826 36.1007C52.1947 36.1007 52.9083 36.2735 53.5235 36.6436C54.1387 37.0137 54.6309 37.5073 54.9508 38.1241C55.2707 38.7164 55.443 39.432 55.4676 40.2463C55.4676 40.345 55.3938 40.419 55.3199 40.419H47.2237V40.3943Z" fill="#F36F21"/>
<path d="M17.9397 37.5319C17.2999 35.8293 16.2909 34.4968 14.9129 33.5591C13.5348 32.6214 11.7384 32.1526 9.57281 32.1526C7.70256 32.1773 6.02918 32.5968 4.60189 33.4111C3.1746 34.2254 2.0426 35.3605 1.25513 36.841C0.443052 38.3216 0.0493164 40.0489 0.0493164 42.0229C0.0493164 43.9723 0.443052 45.675 1.23052 47.1308C2.018 48.6114 3.14999 49.7465 4.57728 50.5608C6.02918 51.3751 7.72717 51.7699 9.69585 51.7699C11.3692 51.7699 12.8703 51.4738 14.2238 50.9062C15.5281 50.3634 16.6108 49.5738 17.5214 48.5374C17.5706 48.488 17.5706 48.3893 17.5214 48.3153L14.9375 45.6503C14.8882 45.5763 14.7898 45.6009 14.716 45.6503C13.4117 46.9581 11.886 47.6244 10.1388 47.6244C9.15446 47.6244 8.26856 47.3776 7.5303 46.9088C6.76744 46.4399 6.17683 45.749 5.7831 44.8607C5.63544 44.5399 5.5124 44.1697 5.41397 43.7996C5.38936 43.7009 5.46319 43.6022 5.56162 43.6022H18.5057C18.5795 43.6022 18.6533 43.5282 18.6533 43.4541C18.7764 41.184 18.5549 39.2099 17.9397 37.5319ZM5.43858 40.3943C5.34014 40.3943 5.26632 40.2956 5.29093 40.2216C5.38936 39.7034 5.5124 39.2346 5.70927 38.7904C6.0784 37.9514 6.59518 37.2852 7.25961 36.8163C7.92404 36.3475 8.71151 36.1007 9.59741 36.1007C10.4095 36.1007 11.1231 36.2735 11.7384 36.6436C12.3536 37.0137 12.8457 37.5073 13.1656 38.1241C13.4856 38.7164 13.6578 39.432 13.6824 40.2463C13.6824 40.345 13.6086 40.419 13.5348 40.419H5.43858V40.3943Z" fill="#F36F21"/>
<path d="M70.7003 33.337C69.962 33.8552 69.3222 34.5215 68.83 35.3604C68.7562 35.4838 68.5347 35.4345 68.5347 35.2864V32.5474C68.5347 32.4734 68.4609 32.3993 68.3871 32.3993H63.3915C63.3177 32.3993 63.2439 32.4734 63.2439 32.5474V51.4985C63.2439 51.5725 63.3177 51.6465 63.3915 51.6465H68.3625C68.4363 51.6465 68.5101 51.5725 68.5101 51.4985V42.3931C68.5101 41.258 68.7562 40.2956 69.2484 39.4813C69.7405 38.667 70.4542 38.0501 71.3893 37.6059C72.2752 37.1864 73.3088 37.0384 74.4654 37.1371C74.5638 37.1371 74.6376 37.0631 74.6376 36.989V32.3253C74.6376 32.2266 74.5638 32.1772 74.4654 32.1772C73.0381 32.1772 71.783 32.5721 70.7003 33.337Z" fill="#F36F21"/>
<path d="M89.4519 32.6464V34.6205C89.4519 34.7686 89.2796 34.8426 89.1812 34.7192C88.7629 34.201 88.2707 33.7568 87.7293 33.3867C86.6219 32.6464 85.2931 32.2763 83.7427 32.301C82.1924 32.301 80.7897 32.6958 79.6085 33.4607C78.4027 34.2504 77.4676 35.3114 76.8031 36.6439C76.1387 38.0011 75.7942 39.5803 75.7942 41.431C75.7942 43.2817 76.1387 44.8857 76.8277 46.2922C77.5168 47.6987 78.4519 48.7844 79.6577 49.5494C80.8635 50.339 82.2662 50.7092 83.8658 50.7092C85.3915 50.7092 86.7204 50.339 87.7785 49.5987C88.2953 49.2533 88.7629 48.8091 89.1566 48.3156C89.255 48.1922 89.4273 48.2663 89.4273 48.4143V50.0676C89.4273 50.9806 89.2304 51.7702 88.8367 52.4611C88.443 53.1521 87.8524 53.6703 87.1141 54.0404C86.3758 54.4105 85.4899 54.6079 84.481 54.6079C83.4228 54.6079 82.4139 54.4352 81.4541 54.0898C80.5436 53.769 79.6823 53.3001 78.8703 52.7326C78.7964 52.6832 78.698 52.7079 78.6488 52.7819L76.8277 56.2366C76.7785 56.3106 76.8031 56.3846 76.877 56.434C77.9351 57.1496 79.1163 57.7171 80.4206 58.1613C81.7741 58.6301 83.2506 58.8522 84.8009 58.8522C86.7942 58.8522 88.5168 58.4821 89.9933 57.7665C91.4698 57.0262 92.6018 55.9898 93.4385 54.6573C94.2752 53.3248 94.6689 51.7455 94.6689 49.9195V32.5971C94.6689 32.523 94.5951 32.449 94.5213 32.449H89.575C89.5257 32.4984 89.4519 32.5724 89.4519 32.6464ZM88.9105 44.2934C88.5414 45.0831 88.0246 45.6753 87.3848 46.0948C86.7204 46.5143 85.9821 46.7363 85.1208 46.7363C84.2595 46.7363 83.4966 46.5143 82.8322 46.0948C82.1678 45.6753 81.6756 45.0584 81.3065 44.2934C80.962 43.5285 80.7651 42.6155 80.7405 41.6284C80.7651 40.5921 80.962 39.7037 81.3065 38.9141C81.651 38.1491 82.1678 37.5322 82.8322 37.1128C83.4966 36.6933 84.2595 36.4712 85.0962 36.4712C85.9329 36.4712 86.6958 36.6933 87.3602 37.1128C88.0246 37.5322 88.5168 38.1491 88.8859 38.9141C89.255 39.7037 89.4273 40.5921 89.4273 41.6284C89.4519 42.6155 89.2796 43.5038 88.9105 44.2934Z" fill="#F36F21"/>
<path d="M111.747 32.597L107.563 45.5518C107.514 45.6999 107.317 45.6999 107.268 45.5518L102.617 32.597C102.593 32.523 102.543 32.4983 102.469 32.4983H97.3509C97.2525 32.4983 97.1541 32.6217 97.2033 32.7204L104.758 51.326C104.783 51.3753 104.783 51.4 104.758 51.4494L104.266 52.5351C104.02 53.1273 103.675 53.5715 103.257 53.8923C102.839 54.1884 102.371 54.3364 101.805 54.3364C101.042 54.3364 100.304 54.0403 99.5411 53.4481C99.4673 53.3988 99.3688 53.3987 99.3196 53.4974L97.2525 57.0755C97.2033 57.1495 97.2279 57.2235 97.3017 57.2729C98.0154 57.8404 98.7782 58.2846 99.5411 58.556C100.353 58.8521 101.239 59.0002 102.199 59.0002C103.798 59.0002 105.176 58.5807 106.284 57.7417C107.416 56.9027 108.302 55.6689 108.966 54.0156L117.013 32.745C117.062 32.6463 116.989 32.523 116.865 32.523H111.895C111.845 32.4983 111.772 32.5476 111.747 32.597Z" fill="#F36F21"/>
<path d="M96.342 22.7018C96.3174 22.6031 96.219 22.5538 96.1205 22.6031C95.7022 22.8005 95.3084 22.9486 94.9393 23.072C94.521 23.1953 94.1518 23.2447 93.8073 23.2447C93.2659 23.2694 92.823 23.0966 92.5031 22.7512C92.1832 22.4057 92.0109 21.7888 92.0109 21.0239V15.9159H95.087C95.1608 15.9159 95.2346 15.8419 95.2346 15.7679V11.647C95.2346 11.573 95.1608 11.499 95.087 11.499H92.0109V4.31829C92.0109 4.14556 91.9371 4.07153 91.8632 4.07153H86.9169C86.8431 4.07153 86.7693 4.14556 86.7693 4.21959V21.8382C86.7693 23.146 87.0154 24.2564 87.5322 25.1447C88.0243 26.0331 88.738 26.6993 89.6239 27.1188C90.5098 27.5383 91.4941 27.7604 92.6015 27.7604C93.4628 27.7604 94.3241 27.637 95.1362 27.3902C95.9236 27.1681 96.6373 26.8474 97.3017 26.4525C97.3509 26.4279 97.4002 26.3538 97.3756 26.2798L96.342 22.7018Z" fill="#F36F21"/>
<path d="M15.1096 1.65343V10.0926C15.1096 10.2406 14.9128 10.3147 14.8389 10.1913C14.3714 9.57438 13.83 9.08086 13.2394 8.6367C12.0582 7.79772 10.6063 7.4029 8.93289 7.4029C7.16107 7.4029 5.58613 7.82239 4.25727 8.68605C2.92841 9.5497 1.89485 10.7341 1.13199 12.2394C0.393736 13.7446 0 15.4966 0 17.52C0 19.5681 0.369127 21.3694 1.13199 22.924C1.87025 24.4786 2.92841 25.663 4.30649 26.5267C5.65995 27.3904 7.25951 27.8098 9.05593 27.8098C10.7047 27.8098 12.1074 27.3904 13.264 26.5761C13.8546 26.1566 14.3714 25.663 14.8143 25.0708C14.9128 24.9474 15.085 25.0215 15.085 25.1695V27.6618C15.085 27.7358 15.1588 27.8098 15.2327 27.8098H20.3758C20.4497 27.8098 20.5235 27.7358 20.5235 27.6618V1.65343C20.5235 1.5794 20.4497 1.50537 20.3758 1.50537H15.2327C15.1834 1.50537 15.1096 1.55472 15.1096 1.65343ZM14.519 20.5798C14.1253 21.4435 13.5593 22.1097 12.821 22.5786C12.1074 23.0721 11.2707 23.2942 10.3356 23.2942C9.37584 23.2942 8.53915 23.0474 7.8255 22.5786C7.11186 22.085 6.54586 21.4188 6.12752 20.5798C5.73378 19.7162 5.5123 18.7538 5.4877 17.6681C5.5123 16.5577 5.73378 15.5706 6.12752 14.707C6.52125 13.8433 7.08725 13.1771 7.8255 12.6835C8.53915 12.19 9.37584 11.9679 10.3356 11.9679C11.2707 11.9679 12.0828 12.2147 12.821 12.6835C13.5347 13.1771 14.1007 13.8433 14.519 14.6823C14.9128 15.5459 15.1342 16.533 15.1342 17.6681C15.1096 18.7538 14.9128 19.7408 14.519 20.5798Z" fill="#F36F21"/>
<path d="M26.8233 0C27.66 0 28.3737 0.29611 28.9151 0.863655C29.4564 1.4312 29.7271 2.1468 29.7271 3.01046C29.7271 3.87411 29.4564 4.58971 28.9151 5.15726C28.3737 5.7248 27.6846 6.02091 26.8233 6.02091C26.0113 6.02091 25.3468 5.7248 24.8054 5.15726C24.2641 4.58971 23.9688 3.87411 23.9688 3.01046C23.9688 2.1468 24.2394 1.4312 24.8054 0.863655C25.3468 0.271435 26.0359 0 26.8233 0ZM24.3379 8.4885H29.3334C29.4072 8.4885 29.4811 8.56253 29.4811 8.63655V27.5876C29.4811 27.6616 29.4072 27.7357 29.3334 27.7357H24.3379C24.2641 27.7357 24.1902 27.6616 24.1902 27.5876V8.66123C24.1902 8.56253 24.2394 8.4885 24.3379 8.4885Z" fill="#F36F21"/>
<path d="M40.6041 9.47546C39.8658 9.99365 39.226 10.6599 38.7338 11.4989C38.66 11.6223 38.4385 11.5729 38.4385 11.4249V8.68583C38.4385 8.6118 38.3647 8.53777 38.2909 8.53777H33.2954C33.2215 8.53777 33.1477 8.6118 33.1477 8.68583V27.6369C33.1477 27.7109 33.2215 27.785 33.2954 27.785H38.2909C38.3647 27.785 38.4385 27.7109 38.4385 27.6369V18.5315C38.4385 17.3964 38.6846 16.4341 39.1768 15.6197C39.669 14.8054 40.3826 14.1885 41.3177 13.7444C42.2036 13.3249 43.2372 13.1768 44.3938 13.2755C44.4922 13.2755 44.5661 13.2015 44.5661 13.1275V8.43907C44.5661 8.34037 44.4922 8.29102 44.3938 8.29102C42.9419 8.31569 41.6869 8.71051 40.6041 9.47546Z" fill="#F36F21"/>
<path d="M63.6128 13.5471C62.973 11.8444 61.964 10.5119 60.5859 9.57425C59.2079 8.63657 57.4115 8.16772 55.2459 8.16772C53.3757 8.1924 51.7023 8.61189 50.275 9.42619C48.8477 10.2405 47.7157 11.3756 46.9282 12.8561C46.1161 14.3367 45.7224 16.064 45.7224 18.0381C45.7224 19.9875 46.1161 21.6901 46.9036 23.146C47.6911 24.6265 48.8231 25.7616 50.2504 26.5759C51.7023 27.3902 53.4003 27.785 55.3689 27.785C57.0423 27.785 58.5434 27.4889 59.8969 26.9214C61.2012 26.3785 62.2839 25.5889 63.1944 24.5525C63.2437 24.5031 63.2437 24.4044 63.1944 24.3304L60.6106 21.6654C60.5613 21.5914 60.4629 21.6161 60.3891 21.6654C59.0848 22.9732 57.5591 23.6395 55.8119 23.6395C54.8276 23.6395 53.9416 23.3927 53.2034 22.9239C52.4405 22.4551 51.8499 21.7641 51.4562 20.8758C51.3085 20.555 51.1855 20.1849 51.0871 19.8147C51.0625 19.716 51.1363 19.6173 51.2347 19.6173H64.1788C64.2526 19.6173 64.3264 19.5433 64.3264 19.4693C64.4495 17.1991 64.228 15.225 63.6128 13.5471ZM51.1117 16.3848C51.0132 16.3848 50.9394 16.2861 50.964 16.2121C51.0625 15.6939 51.1855 15.225 51.3824 14.7809C51.7515 13.9419 52.2683 13.2756 52.9327 12.8068C53.5971 12.3379 54.3846 12.0912 55.2705 12.0912C56.0826 12.0912 56.7962 12.2639 57.4114 12.6341C58.0267 13.0042 58.5188 13.4977 58.8387 14.1146C59.1587 14.7068 59.3309 15.4224 59.3555 16.2367C59.3555 16.3354 59.2817 16.4095 59.2079 16.4095H51.1117V16.3848Z" fill="#F36F21"/>
<path d="M80.9126 14.6081C80.8388 14.6575 80.7403 14.6328 80.6911 14.5835C80.2236 13.9912 79.6576 13.5224 78.9931 13.2016C78.2795 12.8315 77.4674 12.6587 76.5569 12.6587C75.7202 12.6587 74.9573 12.8808 74.2929 13.325C73.6285 13.7691 73.1117 14.386 72.718 15.2003C72.3488 15.99 72.152 16.9523 72.152 18.0134C72.152 19.0745 72.3488 19.9875 72.718 20.8018C73.0871 21.6161 73.6285 22.233 74.2929 22.6771C74.9573 23.1213 75.7202 23.3434 76.5569 23.3434C77.492 23.3434 78.3287 23.1707 79.0669 22.7758C79.756 22.4304 80.322 21.9122 80.7649 21.2459C80.8142 21.1719 80.9126 21.1472 80.9864 21.1966L84.3824 23.5408C84.4562 23.5901 84.4808 23.6888 84.4316 23.7629C83.6687 25.0213 82.586 25.9837 81.2325 26.6746C79.8298 27.3902 78.181 27.7604 76.3354 27.7604C74.4652 27.7604 72.7918 27.3656 71.3891 26.5512C69.9618 25.7369 68.8544 24.6019 68.0669 23.1213C67.2795 21.6407 66.8857 19.9381 66.8857 18.0134C66.8857 16.064 67.2795 14.3367 68.0669 12.8561C68.8544 11.3756 69.9618 10.2158 71.4137 9.40152C72.841 8.58721 74.4898 8.16772 76.36 8.16772C78.1564 8.16772 79.7314 8.51319 81.1095 9.17943C82.4383 9.84568 83.5211 10.7587 84.3332 11.9431C84.3824 12.0172 84.3578 12.1159 84.3086 12.1652L80.9126 14.6081Z" fill="#F36F21"/>
<path d="M116.964 13.4977L111.132 4.21959C111.083 4.12088 110.985 4.07153 110.861 4.07153H105.964C105.718 4.07153 105.571 4.34297 105.694 4.56505L110.271 11.4496H100.132C99.9599 11.4496 99.8123 11.5977 99.8123 11.7704V15.5952C99.8123 15.7679 99.9599 15.9159 100.132 15.9159H110.271L105.694 22.8005C105.546 22.9979 105.694 23.294 105.964 23.294H110.861C110.96 23.294 111.058 23.2447 111.132 23.146L116.964 13.8679C117.038 13.7445 117.038 13.6211 116.964 13.4977Z" fill="url(#paint0_linear_9614_17257)"/>
<path d="M113.691 48.3649V47.7974H116.62V48.3649H115.488V51.4741H114.823V48.3649H113.691Z" fill="#F36F21"/>
<path d="M117.161 47.822H117.973L119.056 50.487H119.105L120.188 47.822H121V51.4987H120.36V48.9818H120.335L119.326 51.4987H118.859L117.85 48.9818H117.825V51.5234H117.186V47.822H117.161Z" fill="#F36F21"/>
</g>
<defs>
<linearGradient id="paint0_linear_9614_17257" x1="99.8702" y1="13.6817" x2="117.02" y2="13.6817" gradientUnits="userSpaceOnUse">
<stop stop-color="#F36F24"/>
<stop offset="0.1342" stop-color="#F47728"/>
<stop offset="0.3399" stop-color="#F78C35"/>
<stop offset="0.5112" stop-color="#FAA342"/>
<stop offset="0.6952" stop-color="#FBB646"/>
<stop offset="1" stop-color="#FEDC4E"/>
</linearGradient>
<clipPath id="clip0_9614_17257">
<rect width="121" height="59.0003" fill="white"/>
</clipPath>
</defs>
</svg>
