<svg width="24" height="24" viewBox="0 0 24 24" fill="none" xmlns="http://www.w3.org/2000/svg">
<g clip-path="url(#clip0_4613_211245)">
<rect x="3" y="3" width="18" height="18" rx="2" fill="#FFDBB3" stroke="black" stroke-width="2"/>
<g clip-path="url(#clip1_4613_211245)">
<g clip-path="url(#clip2_4613_211245)">
<path d="M15.1147 8.32542L10.0935 13.095L7.9964 11.1032C7.54025 10.6694 6.79871 10.6694 6.34255 11.1032C5.88582 11.5371 5.88582 12.2405 6.34255 12.6744L9.26661 15.4522C9.49468 15.6694 9.79411 15.7778 10.0935 15.7778C10.393 15.7778 10.6924 15.6694 10.9205 15.4522L16.7686 9.89656C17.2253 9.46266 17.2253 8.75932 16.7686 8.32542C16.3124 7.89153 15.5709 7.89153 15.1147 8.32542Z" fill="black"/>
</g>
</g>
</g>
<defs>
<clipPath id="clip0_4613_211245">
<rect width="24" height="24" fill="white"/>
</clipPath>
<clipPath id="clip1_4613_211245">
<rect width="11.1111" height="7.77778" fill="white" transform="translate(6 8)"/>
</clipPath>
<clipPath id="clip2_4613_211245">
<rect width="11.1111" height="7.77778" fill="white" transform="translate(6 8)"/>
</clipPath>
</defs>
</svg>
