<svg width="24" height="24" viewBox="0 0 24 24" fill="none" xmlns="http://www.w3.org/2000/svg">
<rect x="3" y="3" width="18" height="18" rx="2" fill="#F0F0F0" stroke="#C8C8C8" stroke-width="2"/>
<g clip-path="url(#clip0_5003_47131)">
<path d="M15.559 8.99217L10.5379 13.7617L8.44073 11.77C7.98458 11.3361 7.24304 11.3361 6.78689 11.77C6.33015 12.2039 6.33015 12.9072 6.78689 13.3411L9.71094 16.119C9.93902 16.3362 10.2384 16.4445 10.5379 16.4445C10.8373 16.4445 11.1367 16.3362 11.3648 16.119L17.2129 10.5633C17.6696 10.1294 17.6696 9.42607 17.2129 8.99217C16.7567 8.55827 16.0152 8.55827 15.559 8.99217Z" fill="#C8C8C8"/>
<g clip-path="url(#clip1_5003_47131)">
<path d="M15.559 8.99217L10.5379 13.7617L8.44073 11.77C7.98458 11.3361 7.24304 11.3361 6.78689 11.77C6.33015 12.2039 6.33015 12.9072 6.78689 13.3411L9.71094 16.119C9.93902 16.3362 10.2384 16.4445 10.5379 16.4445C10.8373 16.4445 11.1367 16.3362 11.3648 16.119L17.2129 10.5633C17.6696 10.1294 17.6696 9.42607 17.2129 8.99217C16.7567 8.55827 16.0152 8.55827 15.559 8.99217Z" fill="#C8C8C8"/>
</g>
</g>
<defs>
<clipPath id="clip0_5003_47131">
<rect width="11.1111" height="7.77778" fill="white" transform="translate(6.44434 8.66675)"/>
</clipPath>
<clipPath id="clip1_5003_47131">
<rect width="11.1111" height="7.77778" fill="white" transform="translate(6.44434 8.66675)"/>
</clipPath>
</defs>
</svg>
