<svg width="32" height="32" viewBox="0 0 32 32" fill="none" xmlns="http://www.w3.org/2000/svg">
<g clip-path="url(#clip0_11_2271)">
<path d="M16 3C19.4478 3 22.7544 4.36964 25.1924 6.80761C27.6304 9.24558 29 12.5522 29 16C29 19.4478 27.6304 22.7544 25.1924 25.1924C22.7544 27.6304 19.4478 29 16 29C12.5522 29 9.24558 27.6304 6.80761 25.1924C4.36964 22.7544 3 19.4478 3 16C3 12.5522 4.36964 9.24558 6.80761 6.80761C9.24558 4.36964 12.5522 3 16 3ZM16 32C20.2435 32 24.3131 30.3143 27.3137 27.3137C30.3143 24.3131 32 20.2435 32 16C32 11.7565 30.3143 7.68687 27.3137 4.68629C24.3131 1.68571 20.2435 0 16 0C11.7565 0 7.68687 1.68571 4.68629 4.68629C1.68571 7.68687 0 11.7565 0 16C0 20.2435 1.68571 24.3131 4.68629 27.3137C7.68687 30.3143 11.7565 32 16 32ZM11.6438 8.53125C11.1063 7.9 10.1625 7.81875 9.53125 8.35625C8.9 8.89375 8.81875 9.8375 9.35625 10.4688L14.0375 16L9.35625 21.5312C8.81875 22.1625 8.9 23.1125 9.53125 23.6437C10.1625 24.175 11.1125 24.1 11.6438 23.4688L16 18.325L20.3563 23.4688C20.8938 24.1 21.8375 24.1812 22.4688 23.6437C23.1 23.1062 23.1812 22.1625 22.6437 21.5312L17.9625 16L22.6437 10.4688C23.1812 9.8375 23.1 8.8875 22.4688 8.35625C21.8375 7.825 20.8875 7.9 20.3563 8.53125L16 13.675L11.6438 8.53125Z" fill="#AD1521"/>
</g>
<defs>
<clipPath id="clip0_11_2271">
<rect width="32" height="32" fill="white"/>
</clipPath>
</defs>
</svg>
