<svg width="13" height="16" viewBox="0 0 13 16" fill="none" xmlns="http://www.w3.org/2000/svg">
<path d="M11.0272 6.01557C11.0272 3.52475 9.00639 1.50389 6.51557 1.50389C4.02475 1.50389 2.00389 3.52475 2.00389 6.01557C2.00389 6.40407 2.14488 7.00563 2.48326 7.80771C2.81223 8.58472 3.27907 9.44319 3.81483 10.3111C4.70776 11.7586 5.74169 13.1559 6.51557 14.1522C7.29258 13.1559 8.3265 11.7586 9.21631 10.3111C9.75207 9.44319 10.2189 8.58472 10.5479 7.80771C10.8863 7.00563 11.0272 6.40407 11.0272 6.01557ZM12.5311 6.01557C12.5311 8.7539 8.8654 13.629 7.25811 15.6405C6.87274 16.1198 6.15839 16.1198 5.77302 15.6405C4.16574 13.629 0.5 8.7539 0.5 6.01557C0.5 2.69447 3.19447 0 6.51557 0C9.83666 0 12.5311 2.69447 12.5311 6.01557ZM7.51816 6.01557C7.51816 5.74966 7.41253 5.49465 7.22451 5.30663C7.03649 5.1186 6.78147 5.01297 6.51557 5.01297C6.24966 5.01297 5.99465 5.1186 5.80663 5.30663C5.6186 5.49465 5.51297 5.74966 5.51297 6.01557C5.51297 6.28147 5.6186 6.53649 5.80663 6.72451C5.99465 6.91253 6.24966 7.01816 6.51557 7.01816C6.78147 7.01816 7.03649 6.91253 7.22451 6.72451C7.41253 6.53649 7.51816 6.28147 7.51816 6.01557ZM4.00908 6.01557C4.00908 5.35081 4.27316 4.71327 4.74321 4.24321C5.21327 3.77316 5.85081 3.50908 6.51557 3.50908C7.18033 3.50908 7.81786 3.77316 8.28792 4.24321C8.75798 4.71327 9.02205 5.35081 9.02205 6.01557C9.02205 6.68033 8.75798 7.31786 8.28792 7.78792C7.81786 8.25798 7.18033 8.52205 6.51557 8.52205C5.85081 8.52205 5.21327 8.25798 4.74321 7.78792C4.27316 7.31786 4.00908 6.68033 4.00908 6.01557Z" fill="#CD2500"/>
</svg>
