<svg width="25" height="25" viewBox="0 0 25 25" fill="none" xmlns="http://www.w3.org/2000/svg">
<path d="M21.5715 13.591C21.7643 13.4064 21.875 13.148 21.875 12.8773C21.875 12.6066 21.7643 12.3523 21.5715 12.1637L14.3527 5.27305C13.959 4.8957 13.3355 4.91211 12.9623 5.30586C12.5891 5.69961 12.6014 6.32305 12.9951 6.69629L18.4338 11.893H4.48438C3.93887 11.893 3.5 12.3318 3.5 12.8773C3.5 13.4229 3.93887 13.8617 4.48438 13.8617H18.4338L12.991 19.0543C12.5973 19.4316 12.585 20.051 12.9582 20.4447C13.3314 20.8385 13.9549 20.8508 14.3486 20.4775L21.5674 13.5869L21.5715 13.591Z" fill="black"/>
</svg>
