<svg width="24" height="24" viewBox="0 0 24 24" fill="none" xmlns="http://www.w3.org/2000/svg">
<path d="M23.9 12.6789C24.0375 12.3497 24.0375 11.9831 23.9 11.6539C23.2792 10.1664 21.975 8.00391 20.025 6.19141C18.0625 4.36641 15.3667 2.83307 12 2.83307C9.6375 2.83307 7.60416 3.59141 5.92083 4.67057L3.26666 2.01641C2.875 1.62474 2.24166 1.62474 1.85 2.01641C1.45833 2.40807 1.45833 3.04141 1.85 3.42891L4.30833 5.88724C4.19583 5.98724 4.08333 6.08724 3.97083 6.19141C2.025 7.99974 0.720829 10.1664 0.104163 11.6539C-0.0333374 11.9831 -0.0333374 12.3497 0.104163 12.6789C0.720829 14.1664 2.025 16.3331 3.975 18.1414C5.9375 19.9664 8.63333 21.4997 12 21.4997C14.3667 21.4997 16.4 20.7414 18.0792 19.6581L20.7375 22.3164C20.9333 22.5122 21.1875 22.6081 21.4458 22.6081C21.7042 22.6081 21.9583 22.5122 22.1542 22.3164C22.5458 21.9247 22.5458 21.2914 22.1542 20.9039L19.6917 18.4414C19.8042 18.3414 19.9167 18.2414 20.025 18.1414C21.975 16.3331 23.2792 14.1664 23.9 12.6789ZM12 19.4997C9.28333 19.4997 7.05 18.2664 5.33333 16.6789C3.73333 15.1872 2.625 13.4164 2.05833 12.1664C2.625 10.9164 3.73333 9.14557 5.3375 7.65391C5.46666 7.53724 5.59583 7.42057 5.72916 7.30807L7.59166 9.17057C7.00833 10.0247 6.67083 11.0581 6.67083 12.1706C6.67083 15.1164 9.05833 17.5039 12.0042 17.5039C13.1167 17.5039 14.15 17.1622 15.0042 16.5831L16.6333 18.2122C15.2917 18.9914 13.7458 19.4997 12 19.4997ZM14.9792 13.7289L10.4375 9.18724C10.9042 8.94141 11.4375 8.79974 12 8.79974C13.8583 8.79974 15.3667 10.3081 15.3667 12.1664C15.3667 12.7331 15.225 13.2622 14.9792 13.7289ZM13.5667 15.1456C13.1 15.3914 12.5667 15.5331 12 15.5331C10.1417 15.5331 8.63333 14.0247 8.63333 12.1664C8.63333 11.5997 8.775 11.0664 9.02083 10.5997L13.5667 15.1456ZM16.4125 15.1622C16.9917 14.3081 17.3333 13.2747 17.3333 12.1664C17.3333 9.22057 14.9458 6.83307 12 6.83307C10.8875 6.83307 9.85833 7.17474 9.00416 7.75391L7.375 6.12474C8.7125 5.34141 10.2542 4.83307 12 4.83307C14.7167 4.83307 16.95 6.06641 18.6667 7.65391C20.2667 9.14557 21.375 10.9164 21.9417 12.1664C21.375 13.4164 20.2667 15.1872 18.6625 16.6789C18.5375 16.7956 18.4083 16.9122 18.275 17.0247L16.4125 15.1622Z" fill="black"/>
</svg>
