<svg width="24" height="25" viewBox="0 0 24 25" fill="none" xmlns="http://www.w3.org/2000/svg">
<g clip-path="url(#clip0_11393_11777)">
<path d="M17.6126 13.3972C16.844 13.0692 15.9535 13.2848 15.4239 13.9315L13.8679 15.8343C11.712 14.583 9.91234 12.7833 8.661 10.6274L10.5591 9.07611C11.2059 8.54652 11.4261 7.65604 11.0934 6.88743L8.84378 1.63834C8.49228 0.813481 7.60649 0.354186 6.73008 0.541653L1.48099 1.66646C0.618643 1.84924 0 2.61317 0 3.49895C0 14.3346 8.21108 23.258 18.7514 24.3781C19.2107 24.425 19.67 24.4625 20.1387 24.4813H20.1434C20.4293 24.4906 20.7105 24.5 20.9964 24.5C21.8821 24.5 22.6461 23.8814 22.8289 23.019L23.9537 17.7699C24.1411 16.8935 23.6818 16.0077 22.857 15.6562L17.6079 13.4066L17.6126 13.3972ZM20.6917 22.2457C10.5825 22.0817 2.41364 13.9128 2.2543 3.80359L6.90349 2.80532L8.91877 7.51076L7.23625 8.88864C6.38327 9.58696 6.16299 10.8008 6.71602 11.7569C8.16421 14.2549 10.2451 16.3358 12.7431 17.784C13.6992 18.337 14.913 18.1167 15.6114 17.2638L16.9892 15.5812L21.6947 17.5965L20.6917 22.2457Z" fill="black"/>
</g>
<defs>
<clipPath id="clip0_11393_11777">
<rect width="24" height="24" fill="white" transform="translate(0 0.5)"/>
</clipPath>
</defs>
</svg>
