<svg width="24" height="24" viewBox="0 0 24 24" fill="none" xmlns="http://www.w3.org/2000/svg">
<g clip-path="url(#clip0_10937_16474)">
<path d="M12 4.83301C9.28333 4.83301 7.05 6.06634 5.3375 7.65384C3.73333 9.14551 2.625 10.9163 2.05833 12.1663C2.625 13.4163 3.73333 15.1872 5.33333 16.6788C7.05 18.2663 9.28333 19.4997 12 19.4997C14.7167 19.4997 16.95 18.2663 18.6625 16.6788C20.2667 15.1872 21.375 13.4163 21.9417 12.1663C21.375 10.9163 20.2667 9.14551 18.6667 7.65384C16.95 6.06634 14.7167 4.83301 12 4.83301ZM3.975 6.19134C5.9375 4.36634 8.63333 2.83301 12 2.83301C15.3667 2.83301 18.0625 4.36634 20.025 6.19134C21.975 8.00384 23.2792 10.1663 23.9 11.6538C24.0375 11.983 24.0375 12.3497 23.9 12.6788C23.2792 14.1663 21.975 16.333 20.025 18.1413C18.0625 19.9663 15.3667 21.4997 12 21.4997C8.63333 21.4997 5.9375 19.9663 3.975 18.1413C2.025 16.333 0.720829 14.1663 0.104163 12.6788C-0.0333374 12.3497 -0.0333374 11.983 0.104163 11.6538C0.720829 10.1663 2.025 7.99967 3.975 6.19134ZM12 6.83301C9.05416 6.83301 6.66666 9.22051 6.66666 12.1663C6.66666 15.1122 9.05416 17.4997 12 17.4997C14.9458 17.4997 17.3333 15.1122 17.3333 12.1663C17.3333 9.22051 14.9458 6.83301 12 6.83301ZM12 15.533C10.1417 15.533 8.63333 14.0247 8.63333 12.1663C8.63333 10.308 10.1417 8.79967 12 8.79967C13.8583 8.79967 15.3667 10.308 15.3667 12.1663C15.3667 14.0247 13.8583 15.533 12 15.533Z" fill="black"/>
</g>
<defs>
<clipPath id="clip0_10937_16474">
<rect width="24" height="24" fill="white"/>
</clipPath>
</defs>
</svg>
