<svg width="75" height="37" viewBox="0 0 75 37" fill="none" xmlns="http://www.w3.org/2000/svg">
<g clip-path="url(#clip0_10334_11468)">
<path d="M24.0389 22.0863C23.7034 21.398 23.2152 20.878 22.5746 20.4956C21.9492 20.1132 21.2018 19.9297 20.3476 19.9297C19.3714 19.9297 18.5173 20.1591 17.8004 20.6027C17.3123 20.9086 16.9004 21.3368 16.5649 21.8569C16.5191 21.9333 16.3818 21.9027 16.3818 21.811V20.1591C16.3818 20.1132 16.3361 20.0673 16.2903 20.0673H13.1939C13.1481 20.0673 13.1024 20.1132 13.1024 20.1591V31.9056C13.1024 31.9515 13.1481 31.9974 13.1939 31.9974H16.2903C16.3361 31.9974 16.3818 31.9515 16.3818 31.9056V26.1088C16.3818 25.2064 16.6106 24.457 17.0835 23.8605C17.5563 23.264 18.1969 22.9581 19.0054 22.9428C19.707 22.9428 20.2561 23.1722 20.6527 23.6158C21.0645 24.0593 21.2628 24.6711 21.2628 25.4665V31.9056C21.2628 31.9515 21.3086 31.9974 21.3544 31.9974H24.4508C24.4965 31.9974 24.5423 31.9515 24.5423 31.9056V24.5029C24.5423 23.5699 24.3745 22.7593 24.0389 22.0863Z" fill="#F36F21"/>
<path d="M37.0196 23.264C36.623 22.2086 35.9976 21.3827 35.1434 20.8015C34.2893 20.2203 33.1758 19.9297 31.8335 19.9297C30.6742 19.945 29.637 20.205 28.7523 20.7097C27.8677 21.2145 27.166 21.918 26.6779 22.8357C26.1746 23.7534 25.9305 24.8241 25.9305 26.0477C25.9305 27.256 26.1746 28.3113 26.6627 29.2137C27.1508 30.1314 27.8524 30.835 28.7371 31.3397C29.637 31.8445 30.6895 32.0892 31.9098 32.0892C32.947 32.0892 33.8774 31.9056 34.7163 31.5539C35.5248 31.2174 36.1959 30.7279 36.7603 30.0855C36.7908 30.0549 36.7908 29.9938 36.7603 29.9479L35.1587 28.296C35.1282 28.2501 35.0672 28.2654 35.0214 28.296C34.213 29.1067 33.2673 29.5196 32.1843 29.5196C31.5742 29.5196 31.0251 29.3667 30.5675 29.0761C30.0946 28.7855 29.7285 28.3572 29.4845 27.8066C29.393 27.6078 29.3167 27.3783 29.2557 27.1489C29.2404 27.0877 29.2862 27.0265 29.3472 27.0265H37.3704C37.4162 27.0265 37.4619 26.9807 37.4619 26.9348C37.5382 25.5276 37.4009 24.304 37.0196 23.264ZM29.271 25.0382C29.2099 25.0382 29.1642 24.977 29.1794 24.9311C29.2404 24.6099 29.3167 24.3193 29.4387 24.044C29.6675 23.524 29.9879 23.111 30.3997 22.8204C30.8115 22.5298 31.2996 22.3769 31.8487 22.3769C32.3521 22.3769 32.7944 22.4839 33.1758 22.7134C33.5571 22.9428 33.8622 23.2487 34.0605 23.6311C34.2587 23.9981 34.3655 24.4417 34.3808 24.9464C34.3808 25.0076 34.335 25.0535 34.2893 25.0535H29.271V25.0382Z" fill="#F36F21"/>
<path d="M11.1196 23.264C10.7231 22.2086 10.0977 21.3827 9.2435 20.8015C8.38932 20.2203 7.27584 19.9297 5.93355 19.9297C4.77431 19.945 3.73709 20.205 2.85241 20.7097C1.96772 21.2145 1.26608 21.918 0.777974 22.8357C0.274618 23.7534 0.0305672 24.8241 0.0305672 26.0477C0.0305672 27.256 0.274618 28.3113 0.762721 29.2137C1.25082 30.1314 1.95247 30.835 2.83716 31.3397C3.73709 31.8445 4.78956 32.0892 6.00982 32.0892C7.04704 32.0892 7.97748 31.9056 8.81641 31.5539C9.62483 31.2174 10.296 30.7279 10.8603 30.0855C10.8908 30.0549 10.8908 29.9938 10.8603 29.9479L9.25875 28.296C9.22825 28.2501 9.16723 28.2654 9.12147 28.296C8.31305 29.1067 7.36736 29.5196 6.28438 29.5196C5.67425 29.5196 5.12514 29.3667 4.66754 29.0761C4.19469 28.7855 3.82861 28.3572 3.58456 27.8066C3.49304 27.6078 3.41678 27.3783 3.35576 27.1489C3.34051 27.0877 3.38627 27.0265 3.44728 27.0265H11.4705C11.5162 27.0265 11.562 26.9807 11.562 26.9348C11.6383 25.5276 11.501 24.304 11.1196 23.264ZM3.37102 25.0382C3.31 25.0382 3.26424 24.977 3.2795 24.9311C3.34051 24.6099 3.41678 24.3193 3.5388 24.044C3.7676 23.524 4.08792 23.111 4.49975 22.8204C4.91159 22.5298 5.39969 22.3769 5.94881 22.3769C6.45216 22.3769 6.89451 22.4839 7.27584 22.7134C7.65717 22.9428 7.96223 23.2487 8.16052 23.6311C8.35881 23.9981 8.46559 24.4417 8.48084 24.9464C8.48084 25.0076 8.43508 25.0535 8.38932 25.0535H3.37102V25.0382Z" fill="#F36F21"/>
<path d="M43.8225 20.6642C43.3649 20.9854 42.9683 21.3983 42.6633 21.9184C42.6175 21.9948 42.4802 21.9642 42.4802 21.8725V20.1747C42.4802 20.1289 42.4345 20.083 42.3887 20.083H39.2923C39.2466 20.083 39.2008 20.1289 39.2008 20.1747V31.9213C39.2008 31.9672 39.2466 32.013 39.2923 32.013H42.3735C42.4192 32.013 42.465 31.9672 42.465 31.9213V26.2774C42.465 25.5739 42.6175 24.9774 42.9226 24.4726C43.2276 23.9679 43.67 23.5855 44.2496 23.3102C44.7987 23.0502 45.4394 22.9584 46.1563 23.0196C46.2173 23.0196 46.263 22.9737 46.263 22.9278V20.0371C46.263 19.9759 46.2173 19.9453 46.1563 19.9453C45.2716 19.9453 44.4937 20.19 43.8225 20.6642Z" fill="#F36F21"/>
<path d="M55.4454 20.2354V21.459C55.4454 21.5507 55.3387 21.5966 55.2776 21.5201C55.0183 21.1989 54.7133 20.9236 54.3777 20.6942C53.6913 20.2354 52.8676 20.0059 51.9067 20.0212C50.9457 20.0212 50.0763 20.2659 49.3442 20.7401C48.5967 21.2295 48.0171 21.8872 47.6053 22.7131C47.1934 23.5544 46.9799 24.5332 46.9799 25.6804C46.9799 26.8275 47.1935 27.8217 47.6205 28.6935C48.0476 29.5653 48.6273 30.2383 49.3747 30.7124C50.1221 31.2018 50.9915 31.4313 51.983 31.4313C52.9287 31.4313 53.7523 31.2018 54.4082 30.743C54.7285 30.5289 55.0183 30.2535 55.2624 29.9476C55.3234 29.8712 55.4302 29.9171 55.4302 30.0088V31.0336C55.4302 31.5995 55.3082 32.0889 55.0641 32.5172C54.8201 32.9455 54.454 33.2667 53.9964 33.4961C53.5388 33.7255 52.9897 33.8479 52.3643 33.8479C51.7084 33.8479 51.083 33.7408 50.4881 33.5267C49.9238 33.3278 49.3899 33.0372 48.8866 32.6855C48.8408 32.6549 48.7798 32.6702 48.7493 32.716L47.6205 34.8573C47.59 34.9032 47.6053 34.9491 47.651 34.9797C48.3069 35.4232 49.0391 35.775 49.8475 36.0503C50.6864 36.3409 51.6016 36.4786 52.5626 36.4786C53.7981 36.4786 54.8658 36.2492 55.781 35.8056C56.6962 35.3468 57.3978 34.7044 57.9164 33.8785C58.4351 33.0525 58.6791 32.0736 58.6791 30.9418V20.2048C58.6791 20.1589 58.6333 20.113 58.5876 20.113H55.5217C55.4912 20.1436 55.4454 20.1895 55.4454 20.2354ZM55.1099 27.4546C54.8811 27.944 54.5607 28.3111 54.1642 28.5711C53.7523 28.8311 53.2947 28.9688 52.7609 28.9688C52.227 28.9688 51.7542 28.8311 51.3423 28.5711C50.9305 28.3111 50.6254 27.9287 50.3966 27.4546C50.1831 26.9804 50.0611 26.4145 50.0458 25.8027C50.0611 25.1603 50.1831 24.6097 50.3966 24.1203C50.6102 23.6461 50.9305 23.2638 51.3423 23.0037C51.7542 22.7437 52.227 22.6061 52.7456 22.6061C53.2642 22.6061 53.7371 22.7437 54.1489 23.0037C54.5607 23.2638 54.8658 23.6461 55.0946 24.1203C55.3234 24.6097 55.4302 25.1603 55.4302 25.8027C55.4454 26.4145 55.3387 26.9651 55.1099 27.4546Z" fill="#F36F21"/>
<path d="M69.2646 20.2047L66.6716 28.2346C66.6411 28.3264 66.5191 28.3264 66.4886 28.2346L63.6057 20.2047C63.5904 20.1589 63.5599 20.1436 63.5142 20.1436H60.3415C60.2805 20.1436 60.2195 20.22 60.25 20.2812L64.9327 31.8136C64.948 31.8442 64.948 31.8595 64.9327 31.8901L64.6277 32.5631C64.4751 32.9301 64.2616 33.2054 64.0023 33.4043C63.743 33.5878 63.4532 33.6796 63.1023 33.6796C62.6295 33.6796 62.1719 33.4961 61.6991 33.129C61.6533 33.0984 61.5923 33.0984 61.5618 33.1596L60.2805 35.3773C60.25 35.4232 60.2652 35.4691 60.311 35.4997C60.7534 35.8515 61.2262 36.1268 61.6991 36.295C62.2024 36.4786 62.7515 36.5703 63.3464 36.5703C64.3379 36.5703 65.192 36.3103 65.8784 35.7903C66.5801 35.2703 67.1292 34.5055 67.541 33.4808L72.5288 20.2965C72.5593 20.2353 72.5136 20.1589 72.4373 20.1589H69.3562C69.3256 20.1436 69.2799 20.1741 69.2646 20.2047Z" fill="#F36F21"/>
<path d="M59.7161 14.0711C59.7008 14.0099 59.6398 13.9794 59.5788 14.0099C59.3195 14.1323 59.0755 14.2241 58.8467 14.3006C58.5874 14.377 58.3586 14.4076 58.145 14.4076C57.8094 14.4229 57.5349 14.3158 57.3366 14.1017C57.1383 13.8876 57.0315 13.5052 57.0315 13.0311V9.86502H58.9382C58.9839 9.86502 59.0297 9.81913 59.0297 9.77325V7.21899C59.0297 7.1731 58.9839 7.12722 58.9382 7.12722H57.0315V2.67639C57.0315 2.56932 56.9858 2.52344 56.94 2.52344H53.8741C53.8284 2.52344 53.7826 2.56932 53.7826 2.61521V13.5358C53.7826 14.3464 53.9351 15.0347 54.2555 15.5853C54.5605 16.1359 55.0029 16.5489 55.552 16.8089C56.1011 17.0689 56.7112 17.2066 57.3976 17.2066C57.9315 17.2066 58.4653 17.1301 58.9687 16.9772C59.4568 16.8395 59.8991 16.6407 60.311 16.396C60.3415 16.3807 60.372 16.3348 60.3567 16.2889L59.7161 14.0711Z" fill="#F36F21"/>
<path d="M9.36546 1.02439V6.25526C9.36546 6.34703 9.24344 6.39292 9.19768 6.31644C8.90787 5.93407 8.5723 5.62817 8.20622 5.35286C7.47407 4.83283 6.57413 4.58811 5.53691 4.58811C4.43868 4.58811 3.46248 4.84813 2.6388 5.38345C1.81513 5.91877 1.1745 6.65293 0.701647 7.58592C0.244051 8.51892 0 9.60486 0 10.859C0 12.1285 0.228798 13.2451 0.701647 14.2086C1.15924 15.1722 1.81513 15.9064 2.66931 16.4417C3.50823 16.977 4.49969 17.237 5.61318 17.237C6.63514 17.237 7.50457 16.977 8.22147 16.4723C8.58755 16.2123 8.90787 15.9064 9.18243 15.5393C9.24344 15.4628 9.35021 15.5087 9.35021 15.6005V17.1453C9.35021 17.1912 9.39597 17.237 9.44173 17.237H12.6296C12.6754 17.237 12.7212 17.1912 12.7212 17.1453V1.02439C12.7212 0.978502 12.6754 0.932617 12.6296 0.932617H9.44173C9.41122 0.932617 9.36546 0.963207 9.36546 1.02439ZM8.99939 12.7556C8.75533 13.2909 8.40451 13.7039 7.94692 13.9945C7.50457 14.3004 6.98596 14.4381 6.40634 14.4381C5.81147 14.4381 5.29286 14.2851 4.85052 13.9945C4.40817 13.6886 4.05735 13.2756 3.79805 12.7556C3.55399 12.2203 3.41672 11.6238 3.40146 10.9508C3.41672 10.2625 3.55399 9.65074 3.79805 9.11542C4.0421 8.58009 4.39292 8.16713 4.85052 7.86123C5.29286 7.55533 5.81147 7.41768 6.40634 7.41768C6.98596 7.41768 7.48932 7.57063 7.94692 7.86123C8.38926 8.16713 8.74008 8.5801 8.99939 9.10012C9.24344 9.63545 9.38072 10.2472 9.38072 10.9508C9.36546 11.6238 9.24344 12.2356 8.99939 12.7556Z" fill="#F36F21"/>
<path d="M16.626 0C17.1446 0 17.587 0.183539 17.9226 0.535323C18.2581 0.887107 18.4259 1.33066 18.4259 1.86598C18.4259 2.40131 18.2581 2.84486 17.9226 3.19665C17.587 3.54843 17.1599 3.73197 16.626 3.73197C16.1227 3.73197 15.7108 3.54843 15.3753 3.19665C15.0397 2.84486 14.8567 2.40131 14.8567 1.86598C14.8567 1.33066 15.0244 0.887107 15.3753 0.535323C15.7108 0.168244 16.1379 0 16.626 0ZM15.0855 5.26146H18.1819C18.2276 5.26146 18.2734 5.30735 18.2734 5.35323V17.0998C18.2734 17.1456 18.2276 17.1915 18.1819 17.1915H15.0855C15.0397 17.1915 14.9939 17.1456 14.9939 17.0998V5.36853C14.9939 5.30735 15.0244 5.26146 15.0855 5.26146Z" fill="#F36F21"/>
<path d="M25.1679 5.87283C24.7103 6.19402 24.3137 6.60699 24.0086 7.12702C23.9629 7.20349 23.8256 7.1729 23.8256 7.08113V5.38339C23.8256 5.33751 23.7798 5.29162 23.7341 5.29162H20.6377C20.5919 5.29162 20.5462 5.33751 20.5462 5.38339V17.1299C20.5462 17.1758 20.5919 17.2217 20.6377 17.2217H23.7341C23.7798 17.2217 23.8256 17.1758 23.8256 17.1299V11.4861C23.8256 10.7825 23.9781 10.186 24.2832 9.68127C24.5883 9.17654 25.0306 8.79417 25.6102 8.51886C26.1593 8.25884 26.8 8.16707 27.5169 8.22825C27.5779 8.22825 27.6237 8.18237 27.6237 8.13648V5.23044C27.6237 5.16926 27.5779 5.13867 27.5169 5.13867C26.6169 5.15397 25.839 5.39869 25.1679 5.87283Z" fill="#F36F21"/>
<path d="M39.4295 8.3968C39.0329 7.34145 38.4075 6.51552 37.5533 5.93431C36.6992 5.3531 35.5857 5.0625 34.2434 5.0625C33.0842 5.07779 32.0469 5.33781 31.1622 5.84254C30.2776 6.34728 29.5759 7.05084 29.0878 7.96854C28.5845 8.88624 28.3404 9.95689 28.3404 11.1805C28.3404 12.3888 28.5845 13.4441 29.0726 14.3465C29.5607 15.2642 30.2623 15.9678 31.147 16.4725C32.0469 16.9773 33.0994 17.222 34.3197 17.222C35.3569 17.222 36.2873 17.0385 37.1263 16.6867C37.9347 16.3502 38.6058 15.8607 39.1702 15.2184C39.2007 15.1878 39.2007 15.1266 39.1702 15.0807L37.5686 13.4288C37.5381 13.383 37.4771 13.3983 37.4313 13.4288C36.6229 14.2395 35.6772 14.6524 34.5942 14.6524C33.9841 14.6524 33.435 14.4995 32.9774 14.2089C32.5045 13.9183 32.1385 13.49 31.8944 12.9394C31.8029 12.7406 31.7266 12.5111 31.6656 12.2817C31.6503 12.2205 31.6961 12.1594 31.7571 12.1594H39.7803C39.8261 12.1594 39.8718 12.1135 39.8718 12.0676C39.9481 10.6605 39.8108 9.43686 39.4295 8.3968ZM31.6809 10.1557C31.6198 10.1557 31.5741 10.0945 31.5893 10.0487C31.6503 9.72746 31.7266 9.43686 31.8486 9.16155C32.0774 8.64152 32.3978 8.22856 32.8096 7.93795C33.2214 7.64735 33.7095 7.4944 34.2586 7.4944C34.762 7.4944 35.2043 7.60146 35.5857 7.83089C35.967 8.06031 36.2721 8.36621 36.4704 8.74858C36.6687 9.11566 36.7754 9.55922 36.7907 10.064C36.7907 10.1251 36.7449 10.171 36.6992 10.171H31.6809V10.1557Z" fill="#F36F21"/>
<path d="M50.1524 9.05448C50.1067 9.08507 50.0456 9.06978 50.0151 9.03919C49.7253 8.67211 49.3745 8.38151 48.9627 8.18267C48.5203 7.95325 48.017 7.84618 47.4526 7.84618C46.934 7.84618 46.4611 7.98384 46.0493 8.25915C45.6375 8.53446 45.3172 8.91683 45.0731 9.42156C44.8443 9.911 44.7223 10.5075 44.7223 11.1652C44.7223 11.8229 44.8443 12.3888 45.0731 12.8935C45.3019 13.3983 45.6375 13.7806 46.0493 14.0559C46.4611 14.3312 46.934 14.4689 47.4526 14.4689C48.0322 14.4689 48.5508 14.3618 49.0084 14.1171C49.4355 13.903 49.7863 13.5818 50.0609 13.1688C50.0914 13.1229 50.1524 13.1076 50.1982 13.1382L52.3031 14.5913C52.3489 14.6218 52.3641 14.683 52.3336 14.7289C51.8608 15.509 51.1896 16.1055 50.3507 16.5337C49.4813 16.9773 48.4593 17.2067 47.3153 17.2067C46.1561 17.2067 45.1189 16.962 44.2494 16.4572C43.3647 15.9525 42.6783 15.2489 42.1902 14.3312C41.7021 13.4135 41.4581 12.3582 41.4581 11.1652C41.4581 9.95689 41.7021 8.88624 42.1902 7.96854C42.6783 7.05084 43.3647 6.33198 44.2647 5.82725C45.1494 5.32251 46.1713 5.0625 47.3306 5.0625C48.4441 5.0625 49.4203 5.27663 50.2744 5.68959C51.0981 6.10256 51.7693 6.66847 52.2726 7.40263C52.3031 7.44851 52.2879 7.50969 52.2574 7.54028L50.1524 9.05448Z" fill="#F36F21"/>
<path d="M72.4986 8.36611L68.8836 2.61521C68.8531 2.55403 68.792 2.52344 68.7158 2.52344H65.6804C65.5279 2.52344 65.4363 2.69168 65.5126 2.82934L68.3497 7.09663H62.0654C61.9586 7.09663 61.8671 7.1884 61.8671 7.29546V9.66618C61.8671 9.77325 61.9586 9.86502 62.0654 9.86502H68.3497L65.5126 14.1323C65.4211 14.2547 65.5126 14.4382 65.6804 14.4382H68.7158C68.7768 14.4382 68.8378 14.4076 68.8836 14.3464L72.4986 8.59553C72.5443 8.51906 72.5443 8.44258 72.4986 8.36611Z" fill="url(#paint0_linear_10334_11468)"/>
<path d="M70.4697 29.9778V29.626H72.2848V29.9778H71.5832V31.9049H71.1714V29.9778H70.4697Z" fill="#F36F21"/>
<path d="M72.6204 29.6416H73.1238L73.7949 31.2935H73.8254L74.4966 29.6416H74.9999V31.9206H74.6033V30.3605H74.5881L73.9627 31.9206H73.6729L73.0475 30.3605H73.0323V31.9358H72.6357V29.6416H72.6204Z" fill="#F36F21"/>
</g>
<defs>
<linearGradient id="paint0_linear_10334_11468" x1="61.903" y1="8.48016" x2="72.5332" y2="8.48016" gradientUnits="userSpaceOnUse">
<stop stop-color="#F36F24"/>
<stop offset="0.1342" stop-color="#F47728"/>
<stop offset="0.3399" stop-color="#F78C35"/>
<stop offset="0.5112" stop-color="#FAA342"/>
<stop offset="0.6952" stop-color="#FBB646"/>
<stop offset="1" stop-color="#FEDC4E"/>
</linearGradient>
<clipPath id="clip0_10334_11468">
<rect width="74.9999" height="36.5704" fill="white"/>
</clipPath>
</defs>
</svg>
