<svg width="32" height="32" viewBox="0 0 32 32" fill="none" xmlns="http://www.w3.org/2000/svg">
<g clip-path="url(#clip0_11_2267)">
<path d="M16 3C23.1813 3 29 8.81875 29 16C29 23.1813 23.1813 29 16 29C8.81875 29 3 23.1813 3 16C3 8.81875 8.81875 3 16 3ZM16 32C24.8375 32 32 24.8375 32 16C32 7.1625 24.8375 0 16 0C7.1625 0 0 7.1625 0 16C0 24.8375 7.1625 32 16 32ZM23.0625 10.9375C22.475 10.35 21.525 10.3562 20.9438 10.9375L14.0063 17.875L11.0562 14.9375C10.4687 14.35 9.525 14.35 8.9375 14.9375C8.35 15.525 8.35 16.4687 8.9375 17.0562L12.8438 20.9625C13.4812 21.6 14.5188 21.6 15.1562 20.9625L23.0625 13.0625C23.65 12.475 23.65 11.525 23.0625 10.9375Z" fill="#005427"/>
</g>
<defs>
<clipPath id="clip0_11_2267">
<rect width="32" height="32" fill="white"/>
</clipPath>
</defs>
</svg>
